<svg xmlns="http://www.w3.org/2000/svg"
     width="5.48611in" height="2.31944in"
     viewBox="0 0 395 167">
  <path id="Selection"
        stroke="black" stroke-width="1"
        d="M 43.00,3.00
           C 46.19,3.01 50.09,2.71 52.77,4.74
             56.39,7.47 55.99,11.97 56.00,16.00
             56.00,16.00 56.00,118.00 56.00,118.00
             56.00,118.00 56.00,150.00 56.00,150.00
             55.99,153.19 56.29,157.09 54.26,159.77
             51.53,163.39 47.03,162.99 43.00,163.00
             43.00,163.00 14.00,163.00 14.00,163.00
             11.07,162.96 7.70,162.99 5.60,160.57
             3.69,158.38 4.01,154.74 4.00,152.00
             4.00,152.00 4.00,134.00 4.00,134.00
             4.00,134.00 4.00,39.00 4.00,39.00
             4.00,39.00 4.00,13.00 4.00,13.00
             4.03,8.15 3.67,6.42 8.06,3.74
             13.89,2.29 35.57,2.99 43.00,3.00 Z
           M 127.10,4.17
           C 130.16,2.48 138.26,3.00 142.00,3.00
             142.00,3.00 176.00,3.00 176.00,3.00
             185.61,3.05 186.98,4.59 187.00,14.00
             187.00,14.00 187.00,128.00 187.00,128.00
             187.00,128.00 187.00,153.00 187.00,153.00
             186.98,155.53 187.18,158.53 185.40,160.57
             182.96,163.38 178.38,162.99 175.00,163.00
             175.00,163.00 152.00,163.00 152.00,163.00
             152.00,163.00 141.00,162.18 141.00,162.18
             141.00,162.18 130.00,163.00 130.00,163.00
             130.00,163.00 113.00,163.00 113.00,163.00
             113.00,163.00 104.00,162.18 104.00,162.18
             104.00,162.18 95.00,163.00 95.00,163.00
             95.00,163.00 69.00,163.00 69.00,163.00
             66.19,162.98 62.61,163.16 60.31,161.26
             57.59,159.02 58.01,155.16 58.00,152.00
             58.00,152.00 58.00,38.00 58.00,38.00
             58.00,38.00 58.00,13.00 58.00,13.00
             58.02,10.47 57.82,7.47 59.60,5.43
             62.04,2.62 66.62,3.01 70.00,3.00
             70.00,3.00 103.00,3.00 103.00,3.00
             106.97,3.00 113.57,2.37 116.79,4.74
             120.39,7.38 120.78,12.05 122.00,16.00
             122.11,11.40 122.57,6.69 127.10,4.17 Z
           M 259.00,163.00
           C 259.00,163.00 201.00,163.00 201.00,163.00
             190.32,162.94 189.02,160.08 189.00,150.00
             189.00,150.00 189.00,38.00 189.00,38.00
             189.00,38.00 189.00,14.00 189.00,14.00
             189.05,10.86 189.04,7.82 191.43,5.43
             194.22,2.64 198.38,3.01 202.00,3.00
             216.96,2.98 251.13,1.92 264.00,4.67
             274.22,6.85 283.99,11.76 288.00,22.00
             288.00,22.00 290.00,20.00 290.00,20.00
             290.00,20.00 290.00,116.00 290.00,116.00
             290.00,116.00 290.00,144.00 290.00,144.00
             290.00,144.00 289.00,158.00 289.00,158.00
             289.00,158.00 288.00,148.00 288.00,148.00
             282.85,158.89 270.29,162.86 259.00,163.00 Z
           M 363.00,27.00
           C 379.97,27.20 390.97,38.05 391.00,55.00
             391.00,55.00 391.00,132.00 391.00,132.00
             390.99,136.80 390.83,140.31 389.51,145.00
             386.80,154.63 376.78,162.96 367.00,164.84
             367.00,164.84 354.00,164.84 354.00,164.84
             343.46,164.95 343.36,162.36 339.58,162.17
             339.58,162.17 329.00,163.00 329.00,163.00
             329.00,163.00 303.00,163.00 303.00,163.00
             300.19,162.98 296.61,163.16 294.31,161.26
             291.59,159.02 292.01,155.16 292.00,152.00
             292.00,152.00 292.00,56.00 292.00,56.00
             292.00,56.00 292.00,20.00 292.00,20.00
             292.00,16.37 291.27,8.11 293.60,5.43
             296.04,2.62 300.62,3.01 304.00,3.00
             304.00,3.00 332.00,3.00 332.00,3.00
             336.86,3.07 341.03,3.56 342.86,9.02
             342.98,10.47 342.98,12.48 342.86,14.00
             342.86,14.00 342.86,29.00 342.86,29.00
             349.59,26.26 355.97,26.92 363.00,27.00 Z
           M 289.00,13.00
           C 289.00,13.00 289.00,8.00 289.00,8.00
             289.00,8.00 289.00,13.00 289.00,13.00 Z
           M 11.00,11.00
           C 11.00,11.00 11.00,155.00 11.00,155.00
             11.00,155.00 48.00,155.00 48.00,155.00
             48.00,155.00 48.00,11.00 48.00,11.00
             48.00,11.00 11.00,11.00 11.00,11.00 Z
           M 115.41,31.00
           C 115.41,31.00 112.28,13.29 112.28,13.29
             110.72,10.40 106.78,11.00 104.00,11.00
             104.00,11.00 65.00,11.00 65.00,11.00
             65.00,11.00 65.00,155.00 65.00,155.00
             65.00,155.00 98.00,155.00 98.00,155.00
             98.00,155.00 99.00,132.00 99.00,132.00
             99.00,132.00 99.00,102.00 99.00,102.00
             99.00,102.00 100.00,71.00 100.00,71.00
             100.00,71.00 108.00,136.00 108.00,136.00
             110.40,153.59 108.91,154.85 117.00,155.00
             117.00,155.00 126.00,155.00 126.00,155.00
             128.00,155.00 131.80,155.24 133.40,153.98
             134.98,152.74 135.13,149.86 135.42,148.00
             135.42,148.00 137.15,134.00 137.15,134.00
             137.15,134.00 142.72,91.00 142.72,91.00
             142.72,91.00 146.00,69.00 146.00,69.00
             146.00,69.00 146.00,132.00 146.00,132.00
             146.00,132.00 147.00,155.00 147.00,155.00
             147.00,155.00 180.00,155.00 180.00,155.00
             180.00,155.00 180.00,11.00 180.00,11.00
             180.00,11.00 131.00,11.00 131.00,11.00
             131.00,11.00 122.00,75.00 122.00,75.00
             122.00,75.00 115.41,31.00 115.41,31.00 Z
           M 255.00,155.00
           C 262.53,154.96 270.98,153.57 276.96,148.61
             283.95,142.81 284.99,133.51 285.00,125.00
             285.00,125.00 285.00,43.00 285.00,43.00
             284.89,33.90 282.36,24.46 274.96,18.53
             268.64,13.47 260.69,12.63 253.00,11.58
             253.00,11.58 197.00,11.00 197.00,11.00
             197.00,11.00 197.00,155.00 197.00,155.00
             197.00,155.00 255.00,155.00 255.00,155.00 Z
           M 299.00,11.00
           C 299.00,11.00 299.00,155.00 299.00,155.00
             299.00,155.00 334.00,155.00 334.00,155.00
             334.00,155.00 335.00,147.00 335.00,147.00
             338.33,150.05 341.81,153.21 346.00,155.04
             356.97,159.83 373.34,156.92 379.64,146.00
             382.64,140.78 382.99,134.86 383.00,129.00
             383.00,129.00 383.00,58.00 383.00,58.00
             382.99,54.75 383.15,52.13 382.03,49.00
             377.67,36.77 367.46,34.87 356.00,35.00
             352.45,35.05 350.41,35.17 347.00,36.39
             342.26,38.07 338.79,40.80 335.00,44.00
             335.00,44.00 335.00,11.00 335.00,11.00
             335.00,11.00 299.00,11.00 299.00,11.00 Z
           M 246.26,40.11
           C 247.29,42.46 247.99,52.10 248.00,55.00
             248.00,55.00 248.00,107.00 248.00,107.00
             247.99,109.46 246.92,123.33 246.26,124.96
             244.23,129.96 238.65,130.37 234.00,131.00
             234.00,131.00 234.00,35.00 234.00,35.00
             238.21,35.56 244.33,35.66 246.26,40.11 Z
           M 344.40,58.52
           C 346.65,60.93 346.99,71.52 347.00,75.00
             347.00,75.00 347.00,119.00 347.00,119.00
             346.95,123.24 346.95,135.14 341.00,135.14
             334.67,135.14 335.01,122.35 335.00,118.00
             335.00,118.00 335.00,72.00 335.00,72.00
             335.06,67.07 334.66,58.68 340.10,56.90
             341.96,57.13 342.94,56.97 344.40,58.52 Z" />
</svg>
